# File created by Blade
# Date/Time:  Wed Jan 21 14:55:15 2015
# Frame Rate: 120.000 fps
#------------------------------------------------------
:FULLY-SPECIFIED
:DEGREES
301
root 21.091475 22.649185 -18.452835 -87.123512 76.030959 -113.887767
Spine 14.554318 -5.615327 10.860164
Head 17.534404 5.394714 -2.434210
LeftShoulder -8.084403 -27.641067 -4.601559
LeftArm -15.155932 3.030936 -72.365690
LeftForeArm -0.091248 -0.000000 9.463082
LeftHand -1.092543 -0.000000 9.773063
LeftHandThumb1 -26.253704 0.000000 33.147579
RightShoulder -3.016509 -12.160129 1.255669
RightArm 16.011575 -6.790088 64.191754
RightForeArm -20.499939 0.000000 21.583462
RightHand 0.691129 -0.000000 -1.082777
RightHandThumb1 -24.326973 -0.000000 -32.862282
LeftUpLeg -2.090459 13.776431 12.641951
LeftLeg 63.344955 -0.000000 -0.000000
LeftFoot 8.449018 22.227486 -0.277779
LeftToeBase -66.035570 -0.000000 0.000000
RightUpLeg -93.648720 20.343869 14.132110
RightLeg 90.444787 -0.000000 -0.000000
RightFoot -43.075468 -29.230246 15.627346
RightToeBase 20.808542 -0.000000 -0.000000
302
root 21.021588 22.470619 -18.465803 -87.064308 76.105799 -113.606638
Spine 14.629438 -5.542226 10.898878
Head 17.557187 5.492160 -2.663594
LeftShoulder -8.084151 -27.686349 -4.734162
LeftArm -15.349930 3.472245 -72.483041
LeftForeArm -0.553722 -0.000000 9.546441
LeftHand -1.133883 -0.000000 9.907981
LeftHandThumb1 -26.253704 0.000000 33.147579
RightShoulder -3.005662 -12.107780 1.179316
RightArm 15.815899 -6.565708 64.264951
RightForeArm -20.463152 -0.000000 21.567391
RightHand 0.732936 0.000000 -1.096542
RightHandThumb1 -24.326973 -0.000000 -32.862282
LeftUpLeg -1.691349 14.116304 12.639683
LeftLeg 63.533292 -0.000000 -0.000000
LeftFoot 7.934567 22.792417 -0.779438
LeftToeBase -66.101151 -0.000000 0.000000
RightUpLeg -94.055160 20.288958 14.182477
RightLeg 91.119203 -0.000000 -0.000000
RightFoot -43.075799 -29.158903 15.579081
RightToeBase 20.680142 -0.000000 -0.000000
303
root 20.952806 22.295823 -18.476794 -87.322295 76.133285 -113.595164
Spine 14.769529 -5.532061 10.967879
Head 17.494229 5.480192 -2.866441
LeftShoulder -8.168291 -27.799864 -4.691952
LeftArm -15.339245 2.516697 -72.385749
LeftForeArm 0.308254 -0.000000 9.143131
LeftHand -1.091602 -0.000000 9.264327
LeftHandThumb1 -26.253704 0.000000 33.147579
RightShoulder -2.997253 -12.112620 1.108440
RightArm 15.732271 -6.421405 64.283740
RightForeArm -20.398119 -0.000000 21.530724
RightHand 0.648776 -0.000000 -1.032971
RightHandThumb1 -24.326973 -0.000000 -32.862282
LeftUpLeg -1.237453 14.377585 12.709494
LeftLeg 63.702139 -0.000000 -0.000000
LeftFoot 7.137711 23.215583 -1.479912
LeftToeBase -66.250423 -0.000000 0.000000
RightUpLeg -94.398108 20.178823 14.291755
RightLeg 91.781967 -0.000000 -0.000000
RightFoot -43.102921 -29.096365 15.513852
RightToeBase 20.715077 -0.000000 -0.000000
304
root 20.887268 22.129924 -18.486328 -87.452661 76.176590 -113.498509
Spine 14.829982 -5.461806 11.033217
Head 17.527196 5.483840 -3.068022
LeftShoulder -8.233664 -27.736149 -4.789394
LeftArm -15.169365 1.891900 -72.226391
LeftForeArm 0.797200 -0.000000 8.740026
LeftHand -0.930903 -0.000000 8.829505
LeftHandThumb1 -26.253704 0.000000 33.147579
RightShoulder -3.043077 -12.104290 1.125981
RightArm 15.629567 -6.300052 64.244265
RightForeArm -20.401689 0.000000 21.471851
RightHand 0.641358 0.000000 -1.009790
RightHandThumb1 -24.326973 -0.000000 -32.862282
LeftUpLeg -0.766152 14.666520 12.760426
LeftLeg 63.757065 -0.000000 -0.000000
LeftFoot 6.317168 23.489988 -2.122948
LeftToeBase -66.753006 -0.000000 0.000000
RightUpLeg -94.762853 20.103369 14.347360
RightLeg 92.391740 -0.000000 -0.000000
RightFoot -43.104038 -29.062933 15.481696
RightToeBase 20.613351 -0.000000 -0.000000
305
root 20.818745 21.963438 -18.502199 -87.685342 76.274575 -113.451777
Spine 14.964924 -5.457245 11.030922
Head 17.466191 5.517568 -3.254945
LeftShoulder -8.319160 -27.805553 -4.831973
LeftArm -15.244553 1.899609 -72.259035
LeftForeArm 0.885337 -0.000000 8.575172
LeftHand -1.075356 -0.000000 8.577568
LeftHandThumb1 -26.253704 0.000000 33.147579
RightShoulder -3.054435 -12.116574 1.065233
RightArm 15.631990 -6.227434 64.268998
RightForeArm -20.437312 -0.000000 21.305214
RightHand 0.622009 -0.000000 -0.987498
RightHandThumb1 -24.326973 -0.000000 -32.862282
LeftUpLeg -0.214978 14.895519 12.744432
LeftLeg 63.757994 -0.000000 -0.000000
LeftFoot 5.367487 23.755770 -2.691433
LeftToeBase -67.524271 -0.000000 0.000000
RightUpLeg -95.102714 19.995928 14.353393
RightLeg 93.019026 -0.000000 -0.000000
RightFoot -43.086308 -29.024045 15.415744
RightToeBase 20.760880 -0.000000 -0.000000
306
root 20.755519 21.804344 -18.513078 -87.855416 76.333178 -113.379623
Spine 15.033013 -5.409471 11.084246
Head 17.469116 5.570178 -3.457245
LeftShoulder -8.397889 -27.820056 -4.939694
LeftArm -15.321047 1.883882 -72.214153
LeftForeArm 1.073436 0.000000 8.498147
LeftHand -1.142647 0.000000 8.420285
LeftHandThumb1 -26.253704 0.000000 33.147579
RightShoulder -3.092893 -12.125608 1.042380
RightArm 15.614325 -6.199026 64.251585
RightForeArm -20.549239 0.000000 21.130954
RightHand 0.637726 -0.000000 -0.945739
RightHandThumb1 -24.326973 -0.000000 -32.862282
LeftUpLeg 0.355779 15.115596 12.779490
LeftLeg 63.712332 -0.000000 -0.000000
LeftFoot 4.189758 23.832668 -3.375641
LeftToeBase -67.685393 -0.000000 0.000000
RightUpLeg -95.460768 19.940255 14.381854
RightLeg 93.630765 -0.000000 -0.000000
RightFoot -43.089408 -28.894489 15.580840
RightToeBase 20.504488 -0.000000 -0.000000
